<svg width="782" height="782" viewBox="0 0 782 782" fill="none" xmlns="http://www.w3.org/2000/svg">
<g clip-path="url(#clip0_12_47)">
<g clip-path="url(#clip1_12_47)">
<path d="M0 390.972C0 175.043 175.043 0 390.972 0C606.901 0 781.943 175.043 781.943 390.972C781.943 606.901 606.901 781.943 390.972 781.943C175.043 781.943 0 606.901 0 390.972ZM390.972 762.817C596.337 762.817 762.817 596.337 762.817 390.972C762.817 185.606 596.337 19.1263 390.972 19.1263C185.606 19.1263 19.1263 185.606 19.1263 390.972C19.1263 596.337 185.606 762.817 390.972 762.817Z" fill="#1E421D"/>
<g clip-path="url(#clip2_12_47)">
<g clip-path="url(#clip3_12_47)">
<path d="M259.58 358.265L277.505 380.675L338.248 464.983C338.483 465.34 338.828 465.611 339.229 465.756L264.113 586.407L227.054 366.144L259.58 358.265ZM157.461 418.444C157.535 417.585 157.867 416.768 158.414 416.102L212.505 345.944C212.859 345.462 213.349 345.096 213.913 344.893C214.476 344.69 215.087 344.66 215.667 344.807L255.186 353.852C256.328 354.278 256.3 354.373 256.627 354.71L225.116 362.347C223.978 362.636 223.722 362.731 223.053 363.243L157.461 418.444ZM247.677 571.995L229.766 548.837C229.636 548.679 229.532 548.502 229.458 548.311L241.191 543.347L247.677 571.995ZM257.992 575.077C256.646 575.722 254.797 576.603 252.939 576.437L244.69 540.005C244.382 538.654 243.13 538.024 241.855 538.55L230.823 543.219C233.763 538.777 239.954 533.6 241.864 531.467L218.379 397.054L162.097 420.881C161.607 421.088 161.087 421.219 160.557 421.269L223.238 368.515L257.992 575.077ZM331.075 447.879L373.357 410.973L341.419 462.262L331.075 447.879ZM342.249 567.99L267.72 592.409C300.753 564.951 342.969 529.779 381.36 497.737L342.249 567.99ZM620.737 565.657L347.549 567.046L389.841 491.072L620.737 565.657ZM624.482 562.381L393.278 487.815C423.303 462.77 453.321 437.717 483.332 412.656L624.482 562.381ZM387.532 487.028C387.335 487.171 387.168 487.352 387.039 487.559C347.929 520.235 308.78 552.866 269.593 585.45L374.116 417.61L387.532 487.028ZM441.861 441.868L391.201 484.126L377.937 415.472L441.861 441.868ZM418.233 427.608L380.478 412.016L422.234 418.885L418.233 427.608ZM533.939 194.683C533.427 199.769 507.581 432.277 507.581 432.277L485.034 408.384C484.657 408.016 484.161 407.796 483.636 407.763C483.111 407.73 482.591 407.886 482.171 408.204L445.407 438.9C445.222 438.734 422.049 429.215 422.049 429.215L454.381 358.73C454.4 358.721 530.754 202.035 533.939 194.683ZM307.822 189.534C308.324 189.809 308.817 190.241 309.277 190.847L444.127 371.155L424.017 414.993L373.03 406.597C372.435 406.64 371.855 406.808 371.328 407.09L360.207 416.842L307.822 189.534ZM278.358 374.531L303.683 192.289C303.745 191.89 303.825 191.53 303.949 191.208L356.656 419.933L328.643 444.494L278.358 374.531Z" fill="#1E421D"/>
</g>
</g>
</g>
</g>
<defs>
<clipPath id="clip0_12_47">
<rect width="781.943" height="781.943" fill="white"/>
</clipPath>
<clipPath id="clip1_12_47">
<rect width="781.943" height="781.943" fill="white"/>
</clipPath>
<clipPath id="clip2_12_47">
<rect width="467.021" height="402.875" fill="white" transform="translate(157.461 189.534)"/>
</clipPath>
<clipPath id="clip3_12_47">
<rect width="467.021" height="402.875" fill="white" transform="translate(157.461 189.534)"/>
</clipPath>
</defs>
</svg>
