<svg width="190" height="190" viewBox="0 0 190 190" fill="none" xmlns="http://www.w3.org/2000/svg">
<g clip-path="url(#clip0_18_62)">
<g clip-path="url(#clip1_18_62)">
<path d="M0 95.0001C0 42.5327 42.5327 0 95.0001 0C147.467 0 190 42.5327 190 95.0001C190 147.467 147.467 190 95.0001 190C42.5327 190 0 147.467 0 95.0001ZM95.0001 185.353C144.901 185.353 185.353 144.901 185.353 95.0001C185.353 45.0995 144.901 4.6474 95.0001 4.6474C45.0995 4.6474 4.6474 45.0995 4.6474 95.0001C4.6474 144.901 45.0995 185.353 95.0001 185.353Z" fill="white"/>
<g clip-path="url(#clip2_18_62)">
<g clip-path="url(#clip3_18_62)">
<path d="M63.074 87.0529L67.4294 92.498L82.189 112.984C82.2462 113.07 82.3298 113.136 82.4274 113.172L64.1753 142.488L55.1707 88.9674L63.074 87.0529ZM38.2606 101.675C38.2785 101.467 38.3592 101.268 38.4921 101.106L51.6355 84.0591C51.7215 83.9418 51.8406 83.8529 51.9775 83.8037C52.1143 83.7544 52.2628 83.7471 52.4038 83.7826L62.0062 85.9805C62.2838 86.0842 62.2769 86.1072 62.3564 86.189L54.6996 88.0447C54.4231 88.115 54.3609 88.138 54.1985 88.2624L38.2606 101.675ZM60.1816 138.986L55.8296 133.359C55.7979 133.321 55.7726 133.277 55.7547 133.231L58.6057 132.025L60.1816 138.986ZM62.6881 139.735C62.361 139.891 61.9117 140.106 61.4602 140.065L59.4559 131.213C59.381 130.885 59.0769 130.731 58.767 130.859L56.0865 131.994C56.8007 130.915 58.3051 129.657 58.7693 129.138L53.0627 96.4779L39.3871 102.267C39.2679 102.318 39.1416 102.35 39.0128 102.362L54.2434 89.5434L62.6881 139.735ZM80.4461 108.828L90.7201 99.86L82.9596 112.323L80.4461 108.828ZM83.1612 138.013L65.0519 143.946C73.0784 137.274 83.3363 128.728 92.6645 120.942L83.1612 138.013ZM150.829 137.446L84.449 137.783L94.7253 119.323L150.829 137.446ZM151.739 136.65L95.5604 118.531C102.856 112.446 110.15 106.358 117.442 100.269L151.739 136.65ZM94.1643 118.34C94.1164 118.375 94.0758 118.419 94.0445 118.469C84.5413 126.409 75.0288 134.338 65.5069 142.255L90.9044 101.473L94.1643 118.34ZM107.365 107.367L95.0559 117.635L91.8328 100.953L107.365 107.367ZM101.624 103.902L92.4502 100.113L102.596 101.783L101.624 103.902ZM129.739 47.3048C129.615 48.5409 123.334 105.037 123.334 105.037L117.856 99.231C117.764 99.1417 117.644 99.0881 117.516 99.0801C117.388 99.072 117.262 99.1101 117.16 99.1872L108.227 106.646C108.182 106.606 102.551 104.293 102.551 104.293L110.407 87.1658C110.412 87.1635 128.965 49.0915 129.739 47.3048ZM74.7959 46.0539C74.918 46.1207 75.0378 46.2255 75.1496 46.3729L107.916 90.185L103.029 100.837L90.6406 98.7967C90.4959 98.8073 90.355 98.8481 90.227 98.9165L87.5246 101.286L74.7959 46.0539ZM67.6368 91.0052L73.7903 46.7231C73.8053 46.6264 73.8249 46.5388 73.8548 46.4605L86.6619 102.037L79.8552 108.005L67.6368 91.0052Z" fill="white"/>
</g>
</g>
</g>
</g>
<defs>
<clipPath id="clip0_18_62">
<rect width="190" height="190" fill="white"/>
</clipPath>
<clipPath id="clip1_18_62">
<rect width="190" height="190" fill="white"/>
</clipPath>
<clipPath id="clip2_18_62">
<rect width="113.479" height="97.8923" fill="white" transform="translate(38.2606 46.0538)"/>
</clipPath>
<clipPath id="clip3_18_62">
<rect width="113.479" height="97.8923" fill="white" transform="translate(38.2606 46.0538)"/>
</clipPath>
</defs>
</svg>
